<?xml version="1.0" standalone="no"?>
<!DOCTYPE svg PUBLIC "-//W3C//DTD SVG 20010904//EN"
 "http://www.w3.org/TR/2001/REC-SVG-20010904/DTD/svg10.dtd">
<svg version="1.0" xmlns="http://www.w3.org/2000/svg"
 width="960.000000pt" height="960.000000pt" viewBox="0 0 960.000000 960.000000"
 preserveAspectRatio="xMidYMid meet">
<metadata>
Created by potrace 1.11, written by Peter Selinger 2001-2013
</metadata>
<g transform="translate(0.000000,960.000000) scale(0.100000,-0.100000)"
fill="#000000" stroke="none">
<path d="M4819 8176 c-2 -2 -33 -6 -69 -10 -229 -22 -406 -70 -596 -161 -191
-92 -334 -201 -471 -360 l-52 -61 -107 52 c-367 178 -859 172 -1394 -18 -341
-121 -648 -297 -959 -551 -113 -92 -338 -321 -418 -426 -7 -9 -30 -38 -51 -66
-156 -203 -271 -414 -377 -694 -9 -25 -33 -65 -54 -90 -109 -131 -271 -415
-271 -475 0 -29 11 -46 242 -394 81 -122 148 -225 148 -227 0 -3 15 -25 33
-49 17 -24 46 -67 62 -95 17 -28 33 -51 38 -51 4 0 7 -5 7 -11 0 -6 14 -28 30
-49 17 -21 30 -40 30 -43 0 -2 64 -100 141 -218 78 -118 188 -284 244 -369 56
-85 227 -343 379 -573 152 -230 276 -422 276 -427 0 -4 3 -10 8 -12 4 -1 23
-28 42 -58 19 -30 37 -57 40 -60 13 -13 50 -70 50 -78 0 -5 7 -15 15 -22 9 -7
23 -28 31 -46 9 -19 20 -34 25 -34 5 0 9 -6 9 -13 0 -8 9 -22 20 -32 11 -10
20 -22 20 -26 0 -5 31 -55 69 -111 126 -189 536 -812 566 -860 30 -47 30 -47
85 -47 l55 0 55 75 c58 80 60 82 143 179 69 80 248 258 322 320 33 28 66 55
73 62 32 31 227 177 312 235 210 142 534 323 740 413 36 15 83 36 105 45 315
137 791 274 1065 306 19 2 51 7 70 10 116 17 413 25 531 13 119 -12 163 -19
170 -27 3 -4 12 -34 18 -67 17 -82 17 -83 36 -140 24 -72 113 -251 140 -281 6
-6 21 -26 35 -45 26 -36 153 -166 206 -210 69 -58 196 -140 309 -200 120 -64
233 -115 239 -108 2 2 20 42 40 89 33 78 35 86 19 98 -9 6 -23 12 -30 12 -15
0 -235 113 -295 151 -196 125 -339 273 -421 434 -33 66 -71 170 -81 225 -3 14
-7 39 -11 55 -6 29 -2 32 69 78 41 26 79 47 85 47 5 0 11 4 13 9 5 13 318 172
443 224 154 64 460 165 555 183 14 2 57 11 95 20 109 23 118 25 150 29 30 4
96 15 125 20 8 1 44 6 80 9 310 31 646 21 860 -24 25 -5 56 -12 70 -14 102
-17 296 -89 384 -142 l58 -36 68 67 c53 52 66 72 62 88 -5 19 -171 249 -477
662 -120 162 -476 648 -582 793 -51 70 -96 132 -100 137 -5 6 -20 26 -33 45
-14 19 -30 42 -37 50 -7 8 -111 150 -232 315 -121 165 -224 305 -228 310 -5 6
-26 35 -48 65 -22 30 -43 60 -48 65 -4 6 -54 73 -110 150 -56 77 -118 161
-137 186 -19 26 -42 57 -50 69 -8 12 -22 32 -31 44 -32 42 -315 427 -369 502
-30 42 -60 81 -65 87 -6 7 -39 53 -75 102 -35 50 -73 102 -84 116 -12 14 -29
36 -39 50 -9 13 -67 92 -127 174 -60 83 -118 161 -127 174 -10 14 -27 36 -38
50 -12 14 -29 39 -39 54 -11 18 -40 38 -74 53 -31 14 -66 29 -77 34 -22 9
-160 58 -240 85 -49 16 -315 93 -345 100 -60 13 -179 37 -200 41 -14 2 -38 6
-55 8 -79 13 -165 26 -215 31 -66 7 -465 16 -471 11z"/>
</g>
</svg>
